<?xml version="1.0" standalone="no"?>
<!DOCTYPE svg PUBLIC "-//W3C//DTD SVG 20010904//EN"
 "http://www.w3.org/TR/2001/REC-SVG-20010904/DTD/svg10.dtd">
<svg version="1.0" xmlns="http://www.w3.org/2000/svg"
 width="1024.000000pt" height="1024.000000pt" viewBox="0 0 1024.000000 1024.000000"
 preserveAspectRatio="xMidYMid meet">
<metadata>
Created by potrace 1.11, written by Peter Selinger 2001-2013
</metadata>
<g transform="translate(0.000000,1024.000000) scale(0.100000,-0.100000)"
fill="#000000" stroke="none">
<path d="M4849 9616 c-2 -2 -47 -6 -99 -10 -52 -3 -115 -8 -140 -11 -574 -71
-1068 -222 -1560 -477 -280 -146 -585 -347 -791 -523 -19 -16 -60 -50 -89 -75
-30 -25 -94 -83 -143 -130 -49 -47 -93 -84 -98 -82 -5 1 -8 -2 -7 -7 2 -5 -31
-44 -72 -87 -41 -44 -96 -104 -122 -134 -26 -30 -57 -66 -69 -80 -91 -106
-254 -330 -330 -452 -23 -38 -46 -68 -52 -68 -6 0 -8 -3 -4 -6 3 -3 -26 -60
-65 -127 -39 -66 -92 -165 -118 -218 -26 -54 -51 -95 -56 -91 -4 4 -4 2 -1 -4
9 -15 -27 -87 -38 -77 -4 4 -5 3 -1 -4 4 -7 -11 -55 -34 -107 -22 -52 -40 -98
-40 -101 0 -4 -7 -21 -15 -38 -8 -18 -34 -92 -58 -164 -24 -73 -47 -130 -52
-125 -4 4 -5 2 -2 -5 9 -14 -24 -153 -36 -153 -4 0 -6 -4 -3 -9 3 -4 1 -23 -4
-42 -16 -53 -72 -332 -72 -351 1 -10 -2 -18 -6 -18 -4 0 -7 -19 -8 -43 0 -23
-8 -103 -17 -177 -10 -74 -17 -154 -17 -177 0 -28 -4 -43 -12 -43 -9 0 -9 -3
-3 -8 6 -4 9 -18 8 -32 -5 -51 -4 -362 1 -368 3 -3 1 -11 -5 -19 -9 -9 -8 -17
0 -27 8 -9 8 -16 2 -20 -6 -4 -6 -18 -1 -35 5 -19 4 -33 -3 -41 -9 -10 -9 -11
1 -6 9 5 12 -5 13 -41 0 -55 6 -129 12 -158 3 -11 -1 -26 -7 -34 -8 -11 -8
-13 1 -7 9 5 13 -1 14 -21 1 -41 7 -84 13 -90 3 -3 1 -15 -5 -26 -7 -11 -7
-17 -1 -13 5 3 12 -8 14 -24 3 -17 0 -30 -6 -30 -6 0 -6 -4 2 -8 6 -5 15 -28
18 -53 3 -24 12 -75 20 -112 8 -38 12 -73 8 -78 -3 -5 -1 -9 3 -9 7 0 46 -140
48 -175 1 -5 7 -27 14 -48 11 -31 10 -41 -1 -55 -12 -16 -11 -16 6 -2 18 14
19 13 14 -12 -3 -15 -1 -25 3 -22 8 5 13 -10 10 -30 -1 -4 2 -13 7 -20 20 -27
35 -95 24 -109 -9 -10 -8 -14 3 -14 8 0 11 5 8 10 -3 6 -1 7 6 3 6 -4 11 -13
10 -19 -1 -7 1 -21 6 -32 41 -105 56 -148 58 -165 1 -11 4 -20 8 -20 11 0 40
-81 33 -92 -4 -6 -2 -8 3 -5 6 4 16 -7 22 -25 14 -40 14 -51 -1 -42 -7 4 -8 3
-4 -4 4 -6 14 -8 23 -5 12 5 15 2 10 -10 -3 -9 -2 -17 3 -17 9 0 26 -39 22
-52 -1 -5 3 -8 10 -8 6 0 9 -3 5 -6 -3 -3 4 -23 16 -43 47 -77 51 -89 36 -108
-13 -16 -12 -17 3 -5 11 9 18 10 23 2 3 -5 3 -10 -2 -10 -4 0 -3 -4 3 -8 18
-13 64 -104 57 -115 -3 -5 -1 -7 5 -3 10 6 28 -30 24 -47 -1 -5 2 -6 7 -3 10
6 38 -53 33 -69 -2 -5 0 -7 4 -3 8 8 41 -32 36 -44 -1 -5 3 -8 9 -8 6 0 8 -7
5 -16 -3 -8 -2 -12 4 -9 10 6 32 -28 25 -39 -3 -3 -2 -4 2 -1 7 6 53 -58 53
-74 0 -6 3 -11 8 -11 4 0 15 -12 25 -26 16 -21 17 -28 6 -42 -11 -14 -11 -15
1 -5 15 13 36 -5 68 -60 9 -15 20 -27 24 -27 4 0 8 -6 8 -14 0 -8 7 -17 16
-20 8 -3 12 -10 9 -16 -3 -5 1 -10 10 -10 12 0 15 -5 11 -17 -4 -10 -4 -14 0
-11 8 9 94 -94 87 -104 -2 -5 1 -7 9 -6 7 2 12 -3 10 -10 -1 -8 2 -11 7 -8 5
3 16 -5 24 -17 8 -13 34 -43 56 -66 23 -24 38 -48 35 -53 -4 -6 -2 -8 3 -5 12
7 46 -26 38 -36 -3 -4 -2 -5 2 -2 9 7 123 -107 117 -117 -3 -5 -2 -8 3 -7 22
4 34 -3 31 -18 -2 -10 2 -18 7 -19 22 -2 45 -17 45 -28 0 -7 12 -18 26 -24 14
-7 22 -17 19 -22 -4 -6 -2 -9 3 -8 16 5 103 -72 96 -84 -4 -6 -3 -8 3 -5 6 4
26 -7 44 -23 19 -16 40 -30 48 -30 8 0 11 -6 7 -16 -3 -8 -2 -13 3 -10 5 3 20
-3 32 -15 13 -11 18 -17 10 -13 -9 5 -12 3 -7 -5 4 -6 12 -8 18 -5 6 4 13 2
17 -3 3 -5 37 -31 74 -58 47 -33 65 -50 56 -56 -7 -4 -17 -5 -23 -2 -5 3 -6 1
-2 -5 5 -9 13 -9 27 -2 15 9 26 6 52 -12 17 -12 34 -25 37 -29 3 -3 24 -16 48
-28 23 -12 40 -26 37 -32 -4 -5 -3 -9 2 -8 22 4 43 -2 38 -11 -3 -6 1 -10 10
-10 11 0 15 -5 12 -15 -4 -8 -1 -17 5 -21 7 -4 8 -3 4 4 -5 8 0 12 13 12 11 0
23 -5 27 -12 4 -7 3 -8 -4 -4 -18 11 -14 0 5 -15 11 -10 14 -10 9 -1 -9 15 -1
15 25 1 11 -5 17 -14 15 -18 -3 -4 1 -8 9 -8 19 0 105 -46 105 -56 0 -5 5 -5
10 -2 5 3 10 1 10 -4 0 -6 4 -10 9 -9 10 4 205 -94 209 -104 2 -5 10 -8 17 -8
7 0 36 -10 64 -22 35 -16 49 -28 46 -37 -4 -10 -2 -11 7 -4 15 13 62 -2 54
-16 -3 -5 3 -7 14 -4 11 3 26 1 33 -4 6 -6 25 -13 40 -17 18 -4 27 -12 24 -20
-3 -7 1 -13 9 -13 7 0 11 4 8 9 -3 4 0 8 5 8 6 0 11 -4 11 -8 0 -4 10 -8 22
-9 11 -1 24 -7 28 -13 4 -7 9 -10 11 -8 6 5 109 -25 109 -32 0 -4 6 -7 14 -7
27 0 106 -26 106 -35 0 -5 4 -6 10 -3 5 3 35 -2 67 -12 69 -20 59 -18 106 -27
20 -5 37 -12 37 -16 0 -5 11 -7 25 -4 19 3 25 0 25 -13 0 -12 3 -14 8 -6 4 7
17 11 29 10 23 -1 26 -18 8 -47 -8 -13 -6 -13 8 -2 9 8 15 18 14 22 -2 9 2 10
34 10 13 0 18 -4 13 -12 -5 -10 -4 -10 5 -2 15 13 102 -2 113 -20 5 -7 8 -6 8
4 0 9 3 11 8 5 4 -5 18 -10 32 -11 14 -1 45 -4 70 -8 25 -4 54 -8 65 -9 11 -1
23 -6 27 -12 5 -6 8 -6 8 2 0 13 37 6 59 -11 11 -8 13 -8 7 1 -4 7 -3 13 3 13
5 0 12 -6 14 -12 4 -9 6 -9 6 -1 1 6 10 9 21 6 17 -5 18 -8 8 -22 -8 -10 -5
-10 10 3 17 14 22 16 22 5 0 -9 3 -10 8 -3 4 6 16 9 27 7 11 -2 38 -4 60 -4
22 0 43 -6 47 -12 6 -9 8 -9 8 1 0 6 5 12 11 12 5 0 7 -5 3 -12 -5 -7 -3 -8 7
-2 8 5 37 7 64 5 28 -2 75 -4 105 -5 33 0 54 -5 53 -12 -1 -6 5 -11 12 -11 11
0 12 3 3 14 -10 12 -3 14 38 11 28 -2 48 -8 47 -14 -1 -6 5 -11 12 -11 11 0
12 4 4 13 -8 10 6 13 65 16 47 2 72 -1 69 -7 -3 -5 0 -5 7 2 11 10 16 9 27 -5
10 -13 12 -14 8 -1 -5 12 4 16 42 18 25 1 50 4 55 7 4 3 8 -3 9 -13 0 -15 2
-15 7 -3 4 9 23 17 47 19 22 1 42 5 44 7 2 2 11 -2 19 -9 9 -6 13 -7 9 -1 -4
7 9 12 36 13 23 2 56 4 72 5 17 1 35 5 41 8 6 4 40 8 76 10 36 2 64 6 61 10
-2 5 3 8 12 8 10 0 14 -5 10 -12 -4 -7 -1 -6 7 2 7 8 24 16 38 17 14 1 41 6
60 11 19 5 45 8 57 7 12 -1 20 2 17 6 -2 4 4 8 13 8 24 0 45 5 61 14 6 5 16 6
21 2 5 -3 12 -1 15 4 4 5 17 8 31 6 14 -1 25 1 25 6 0 7 57 23 63 17 2 -2 11
3 20 11 9 7 24 11 32 7 8 -3 15 0 15 6 0 6 6 5 17 -3 11 -10 14 -10 9 -1 -4 7
-2 13 6 14 7 0 18 2 23 2 6 1 25 9 43 18 18 9 30 13 27 8 -3 -4 13 1 35 11 22
11 45 17 50 14 6 -3 10 -2 10 4 0 10 19 9 37 -2 9 -5 11 -3 7 6 -7 20 74 51
93 35 11 -9 12 -7 6 7 -5 15 -3 17 11 12 10 -4 15 -3 11 3 -3 6 0 10 7 10 7 1
31 9 53 20 22 10 43 16 47 14 5 -3 8 0 8 6 0 6 5 8 10 5 6 -3 10 -1 10 4 0 6
6 11 13 11 6 0 72 30 145 67 111 56 135 65 144 52 8 -11 9 -11 4 3 -3 11 2 22
14 28 11 6 20 9 20 6 0 -3 23 11 51 30 45 30 79 38 65 15 -3 -4 1 -8 9 -8 11
0 12 3 3 14 -8 10 -8 17 0 25 7 7 12 8 12 2 0 -5 4 -5 8 1 4 6 52 39 106 73
77 49 101 60 108 50 8 -10 9 -9 5 3 -5 14 19 40 39 43 4 1 18 10 29 21 12 11
32 28 46 37 13 9 55 39 93 67 38 28 73 51 79 51 6 0 8 3 4 6 -3 4 11 18 31 31
20 14 41 32 45 39 5 8 12 12 18 9 5 -4 9 -1 9 5 0 7 7 9 16 6 9 -3 12 -2 8 5
-7 12 66 80 78 73 5 -3 7 -2 6 3 -5 16 80 91 90 81 7 -7 10 -4 9 8 -1 11 4 18
11 16 6 -1 11 1 10 6 -4 12 64 82 74 76 5 -3 7 -2 6 3 -2 5 9 22 25 38 15 16
27 33 27 38 0 4 5 5 10 2 6 -3 10 1 10 10 0 11 5 15 16 11 8 -3 13 -2 10 3 -3
4 2 17 10 27 9 10 12 13 8 5 -5 -9 -3 -12 4 -7 7 4 12 13 12 21 0 7 12 23 26
34 15 12 24 21 20 21 -4 0 8 16 25 35 18 19 36 32 40 29 5 -3 17 0 26 6 16 9
15 10 -4 5 -27 -8 -30 5 -5 26 19 18 29 30 90 112 23 31 48 57 54 57 6 0 9 3
5 6 -5 5 56 98 91 140 5 5 14 20 21 32 7 14 17 19 29 16 13 -5 14 -4 3 4 -11
8 -10 16 10 43 13 19 27 36 31 37 5 2 6 8 2 13 -3 5 2 12 10 15 9 3 16 14 16
23 0 10 8 26 18 37 10 10 26 35 35 54 10 19 27 49 38 65 10 17 22 38 25 48 4
9 10 17 15 17 5 0 8 3 7 8 -3 12 38 93 44 87 3 -4 5 2 5 12 -1 10 3 17 9 16 7
-1 10 6 7 17 -3 11 0 20 6 20 6 0 11 7 11 15 0 8 4 15 8 15 5 0 9 6 9 14 0 24
25 76 34 70 5 -3 6 1 3 9 -3 8 5 25 18 37 13 13 17 20 11 16 -17 -9 -16 -1 2
35 10 18 21 27 28 23 9 -5 9 -4 0 6 -9 10 -8 21 5 49 9 20 20 37 24 39 4 2 5
9 2 17 -3 7 -1 16 5 20 6 3 11 15 11 26 0 11 4 18 9 15 5 -3 9 4 9 17 0 12 8
40 17 62 10 22 17 43 17 47 -1 4 3 20 10 35 6 15 12 30 13 33 11 48 19 68 33
84 9 11 11 16 5 12 -15 -9 -16 -4 -4 26 5 13 14 42 20 66 8 29 16 40 24 35 8
-4 8 -2 -1 9 -9 11 -10 18 -2 23 6 3 8 10 5 15 -8 14 6 40 19 33 7 -4 7 -2 -1
7 -9 10 -9 18 -1 34 6 12 11 22 10 24 -6 8 -1 52 6 49 4 -3 8 13 9 36 1 22 5
43 10 46 4 3 9 26 10 49 1 24 7 50 14 58 9 11 9 14 -1 14 -9 0 -10 3 -1 13 6
8 8 17 4 21 -4 4 -1 11 7 16 8 6 10 10 4 10 -6 0 -9 13 -6 30 2 16 7 28 11 26
3 -2 6 17 6 42 1 26 4 74 8 107 9 77 20 211 21 253 1 17 5 32 9 32 4 0 3 9 -3
20 -6 11 -7 20 -3 20 7 0 8 160 2 306 -1 28 1 56 5 62 4 7 4 12 -1 12 -4 0 -9
39 -11 87 -2 48 -5 101 -7 118 -2 16 -6 59 -10 95 -9 83 -29 220 -50 335 -9
50 -18 99 -19 110 -2 11 -6 27 -9 35 -15 40 -28 120 -21 131 4 7 3 9 -3 6 -9
-6 -21 27 -29 83 -1 8 -11 41 -23 74 -11 32 -18 62 -15 67 3 5 1 9 -4 9 -8 0
-25 53 -26 85 -1 6 -7 16 -13 23 -7 7 -13 19 -13 26 0 7 -12 41 -26 77 -14 35
-27 71 -29 80 -2 9 -27 67 -55 130 -28 63 -52 121 -53 129 -1 8 -8 21 -14 30
-7 8 -32 56 -55 105 -24 50 -46 92 -49 95 -3 3 -19 30 -34 60 -16 30 -36 63
-44 73 -8 9 -11 17 -7 17 4 0 2 6 -4 13 -6 6 -39 57 -75 112 -104 164 -208
309 -307 429 -18 22 -32 46 -32 53 1 7 -2 11 -6 8 -6 -4 -64 56 -140 146 -38
44 -55 61 -171 174 -144 139 -234 219 -339 301 -93 73 -101 80 -92 89 4 5 2 5
-4 2 -5 -3 -63 31 -126 76 -510 359 -1099 613 -1698 731 -69 14 -143 27 -165
31 -22 3 -67 10 -100 15 -61 9 -128 16 -270 30 -79 7 -618 13 -626 6z"/>
<path d="M556 5007 c3 -10 9 -15 12 -12 3 3 0 11 -7 18 -10 9 -11 8 -5 -6z"/>
<path d="M873 3435 c0 -8 4 -12 9 -9 5 3 6 10 3 15 -9 13 -12 11 -12 -6z"/>
<path d="M930 3359 c0 -5 5 -7 10 -4 6 3 10 8 10 11 0 2 -4 4 -10 4 -5 0 -10
-5 -10 -11z"/>
<path d="M9136 3018 c3 -5 10 -6 15 -3 13 9 11 12 -6 12 -8 0 -12 -4 -9 -9z"/>
<path d="M9056 2862 c-3 -5 1 -9 9 -9 8 0 12 4 9 9 -3 4 -7 8 -9 8 -2 0 -6 -4
-9 -8z"/>
<path d="M1196 2833 c-6 -14 -5 -15 5 -6 7 7 10 15 7 18 -3 3 -9 -2 -12 -12z"/>
<path d="M1150 2760 c0 -5 5 -10 11 -10 5 0 7 5 4 10 -3 6 -8 10 -11 10 -2 0
-4 -4 -4 -10z"/>
<path d="M8926 2682 c-3 -5 1 -9 9 -9 8 0 12 4 9 9 -3 4 -7 8 -9 8 -2 0 -6 -4
-9 -8z"/>
<path d="M8795 2489 c-4 -6 -5 -12 -2 -15 2 -3 7 2 10 11 7 17 1 20 -8 4z"/>
<path d="M1473 2435 c0 -8 4 -12 9 -9 5 3 6 10 3 15 -9 13 -12 11 -12 -6z"/>
<path d="M8836 2433 c-6 -14 -5 -15 5 -6 7 7 10 15 7 18 -3 3 -9 -2 -12 -12z"/>
<path d="M8755 2420 c3 -5 8 -10 11 -10 2 0 4 5 4 10 0 6 -5 10 -11 10 -5 0
-7 -4 -4 -10z"/>
<path d="M1535 2340 c-3 -5 -1 -10 4 -10 6 0 11 5 11 10 0 6 -2 10 -4 10 -3 0
-8 -4 -11 -10z"/>
<path d="M8650 2280 c0 -5 5 -10 11 -10 5 0 7 5 4 10 -3 6 -8 10 -11 10 -2 0
-4 -4 -4 -10z"/>
<path d="M1656 2187 c3 -10 9 -15 12 -12 3 3 0 11 -7 18 -10 9 -11 8 -5 -6z"/>
<path d="M8535 2140 c3 -5 8 -10 11 -10 2 0 4 5 4 10 0 6 -5 10 -11 10 -5 0
-7 -4 -4 -10z"/>
<path d="M1710 2119 c0 -5 5 -7 10 -4 6 3 10 8 10 11 0 2 -4 4 -10 4 -5 0 -10
-5 -10 -11z"/>
<path d="M1775 2060 c3 -5 8 -10 11 -10 2 0 4 5 4 10 0 6 -5 10 -11 10 -5 0
-7 -4 -4 -10z"/>
<path d="M8410 2019 c0 -5 5 -7 10 -4 6 3 10 8 10 11 0 2 -4 4 -10 4 -5 0 -10
-5 -10 -11z"/>
<path d="M8373 1935 c0 -8 4 -12 9 -9 5 3 6 10 3 15 -9 13 -12 11 -12 -6z"/>
<path d="M1949 1843 c-13 -16 -12 -17 4 -4 9 7 17 15 17 17 0 8 -8 3 -21 -13z"/>
<path d="M1974 1816 c1 -8 5 -18 8 -22 4 -3 5 1 4 10 -1 8 -5 18 -8 22 -4 3
-5 -1 -4 -10z"/>
<path d="M2027 1799 c7 -7 15 -10 18 -7 3 3 -2 9 -12 12 -14 6 -15 5 -6 -5z"/>
<path d="M8146 1758 c3 -4 9 -8 15 -8 5 0 9 4 9 8 0 5 -7 9 -15 9 -8 0 -12 -4
-9 -9z"/>
<path d="M2070 1721 c0 -6 4 -12 8 -15 5 -3 9 1 9 9 0 8 -4 15 -9 15 -4 0 -8
-4 -8 -9z"/>
<path d="M2110 1719 c0 -5 5 -7 10 -4 6 3 10 8 10 11 0 2 -4 4 -10 4 -5 0 -10
-5 -10 -11z"/>
<path d="M8090 1699 c0 -5 5 -7 10 -4 6 3 10 8 10 11 0 2 -4 4 -10 4 -5 0 -10
-5 -10 -11z"/>
<path d="M8093 1655 c0 -8 4 -12 9 -9 5 3 6 10 3 15 -9 13 -12 11 -12 -6z"/>
<path d="M2176 1642 c-3 -5 1 -9 9 -9 8 0 12 4 9 9 -3 4 -7 8 -9 8 -2 0 -6 -4
-9 -8z"/>
<path d="M2229 1603 c-13 -16 -12 -17 4 -4 9 7 17 15 17 17 0 8 -8 3 -21 -13z"/>
<path d="M2253 1585 c0 -8 4 -12 9 -9 5 3 6 10 3 15 -9 13 -12 11 -12 -6z"/>
<path d="M7975 1580 c3 -5 8 -10 11 -10 2 0 4 5 4 10 0 6 -5 10 -11 10 -5 0
-7 -4 -4 -10z"/>
<path d="M2319 1553 c-13 -16 -12 -17 4 -4 9 7 17 15 17 17 0 8 -8 3 -21 -13z"/>
<path d="M7930 1561 c0 -6 4 -13 10 -16 6 -3 7 1 4 9 -7 18 -14 21 -14 7z"/>
<path d="M2346 1522 c-3 -5 1 -9 9 -9 8 0 12 4 9 9 -3 4 -7 8 -9 8 -2 0 -6 -4
-9 -8z"/>
<path d="M2456 1418 c3 -5 10 -6 15 -3 13 9 11 12 -6 12 -8 0 -12 -4 -9 -9z"/>
<path d="M7775 1420 c3 -5 8 -10 11 -10 2 0 4 5 4 10 0 6 -5 10 -11 10 -5 0
-7 -4 -4 -10z"/>
<path d="M2496 1381 c-3 -5 2 -15 12 -22 15 -12 16 -12 5 2 -7 9 -10 19 -6 22
3 4 4 7 0 7 -3 0 -8 -4 -11 -9z"/>
<path d="M7627 1319 c7 -7 15 -10 18 -7 3 3 -2 9 -12 12 -14 6 -15 5 -6 -5z"/>
<path d="M7547 1299 c7 -7 15 -10 18 -7 3 3 -2 9 -12 12 -14 6 -15 5 -6 -5z"/>
<path d="M2695 1260 c3 -5 8 -10 11 -10 2 0 4 5 4 10 0 6 -5 10 -11 10 -5 0
-7 -4 -4 -10z"/>
<path d="M7455 1249 c-4 -6 -5 -12 -2 -15 2 -3 7 2 10 11 7 17 1 20 -8 4z"/>
<path d="M2876 1178 c3 -5 10 -6 15 -3 13 9 11 12 -6 12 -8 0 -12 -4 -9 -9z"/>
<path d="M2936 1153 c-6 -14 -5 -15 5 -6 7 7 10 15 7 18 -3 3 -9 -2 -12 -12z"/>
<path d="M7295 1159 c-3 -4 2 -6 10 -5 21 3 28 13 10 13 -9 0 -18 -4 -20 -8z"/>
<path d="M7250 1136 c0 -2 8 -10 18 -17 15 -13 16 -12 3 4 -13 16 -21 21 -21
13z"/>
<path d="M2994 1122 c4 -3 14 -7 22 -8 9 -1 13 0 10 4 -4 3 -14 7 -22 8 -9 1
-13 0 -10 -4z"/>
<path d="M2920 1100 c-8 -5 -10 -10 -5 -10 6 0 17 5 25 10 8 5 11 10 5 10 -5
0 -17 -5 -25 -10z"/>
<path d="M3070 1096 c0 -2 8 -10 18 -17 15 -13 16 -12 3 4 -13 16 -21 21 -21
13z"/>
<path d="M7150 1056 c0 -2 8 -10 18 -17 15 -13 16 -12 3 4 -13 16 -21 21 -21
13z"/>
<path d="M3150 1040 c0 -5 5 -10 11 -10 5 0 7 5 4 10 -3 6 -8 10 -11 10 -2 0
-4 -4 -4 -10z"/>
<path d="M3145 1000 c-3 -6 1 -7 9 -4 18 7 21 14 7 14 -6 0 -13 -4 -16 -10z"/>
<path d="M3253 985 c0 -8 4 -12 9 -9 5 3 6 10 3 15 -9 13 -12 11 -12 -6z"/>
<path d="M7015 980 c3 -5 8 -10 11 -10 2 0 4 5 4 10 0 6 -5 10 -11 10 -5 0 -7
-4 -4 -10z"/>
<path d="M3293 965 c0 -8 4 -12 9 -9 5 3 6 10 3 15 -9 13 -12 11 -12 -6z"/>
<path d="M6840 935 c-11 -13 -11 -18 0 -28 10 -9 11 -9 6 1 -4 7 -2 19 4 27 7
8 10 15 7 15 -2 0 -10 -7 -17 -15z"/>
<path d="M6930 940 c0 -5 5 -10 11 -10 5 0 7 5 4 10 -3 6 -8 10 -11 10 -2 0
-4 -4 -4 -10z"/>
<path d="M3473 905 c0 -8 4 -12 9 -9 5 3 6 10 3 15 -9 13 -12 11 -12 -6z"/>
<path d="M6876 907 c3 -10 9 -15 12 -12 3 3 0 11 -7 18 -10 9 -11 8 -5 -6z"/>
<path d="M6830 861 c0 -6 4 -13 10 -16 6 -3 7 1 4 9 -7 18 -14 21 -14 7z"/>
<path d="M6630 836 c7 -7 13 -7 20 0 6 6 3 10 -10 10 -13 0 -16 -4 -10 -10z"/>
<path d="M6690 840 c0 -5 5 -10 11 -10 5 0 7 5 4 10 -3 6 -8 10 -11 10 -2 0
-4 -4 -4 -10z"/>
<path d="M6633 793 c0 -9 4 -10 14 -2 7 6 13 12 13 14 0 1 -6 2 -13 2 -8 0
-14 -6 -14 -14z"/>
<path d="M3840 780 c-12 -7 -10 -9 7 -7 12 0 19 5 17 9 -6 10 -6 10 -24 -2z"/>
<path d="M6359 773 c-13 -16 -12 -17 4 -4 16 13 21 21 13 21 -2 0 -10 -8 -17
-17z"/>
<path d="M6576 781 c-3 -5 2 -15 12 -22 15 -12 16 -12 5 2 -7 9 -10 19 -6 22
3 4 4 7 0 7 -3 0 -8 -4 -11 -9z"/>
<path d="M3910 766 c0 -2 7 -7 16 -10 8 -3 12 -2 9 4 -6 10 -25 14 -25 6z"/>
<path d="M6347 739 c7 -7 15 -10 18 -7 3 3 -2 9 -12 12 -14 6 -15 5 -6 -5z"/>
<path d="M6455 741 c-3 -5 -2 -12 3 -15 5 -3 9 1 9 9 0 17 -3 19 -12 6z"/>
<path d="M6230 736 c0 -2 8 -10 18 -17 15 -13 16 -12 3 4 -13 16 -21 21 -21
13z"/>
<path d="M3720 720 c-9 -6 -10 -10 -3 -10 6 0 15 5 18 10 8 12 4 12 -15 0z"/>
<path d="M4067 699 c7 -7 15 -10 18 -7 3 3 -2 9 -12 12 -14 6 -15 5 -6 -5z"/>
<path d="M4106 678 c3 -5 10 -6 15 -3 13 9 11 12 -6 12 -8 0 -12 -4 -9 -9z"/>
<path d="M6056 678 c3 -4 11 -5 19 -1 21 7 19 12 -4 10 -11 0 -18 -5 -15 -9z"/>
<path d="M6140 686 c0 -2 8 -10 18 -17 15 -13 16 -12 3 4 -13 16 -21 21 -21
13z"/>
<path d="M6467 679 c7 -7 15 -10 18 -7 3 3 -2 9 -12 12 -14 6 -15 5 -6 -5z"/>
<path d="M4070 659 c0 -5 5 -7 10 -4 6 3 10 8 10 11 0 2 -4 4 -10 4 -5 0 -10
-5 -10 -11z"/>
<path d="M4336 647 c3 -10 9 -15 12 -12 3 3 0 11 -7 18 -10 9 -11 8 -5 -6z"/>
<path d="M4460 640 c8 -5 20 -10 25 -10 6 0 3 5 -5 10 -8 5 -19 10 -25 10 -5
0 -3 -5 5 -10z"/>
<path d="M5795 631 c-3 -5 -2 -12 3 -15 5 -3 9 1 9 9 0 17 -3 19 -12 6z"/>
<path d="M4250 625 c0 -7 30 -13 34 -7 3 4 -4 9 -15 9 -10 1 -19 0 -19 -2z"/>
<path d="M5515 620 c-3 -6 1 -7 9 -4 18 7 21 14 7 14 -6 0 -13 -4 -16 -10z"/>
<path d="M5670 616 c7 -7 13 -7 20 0 6 6 3 10 -10 10 -13 0 -16 -4 -10 -10z"/>
<path d="M4616 607 c3 -10 9 -15 12 -12 3 3 0 11 -7 18 -10 9 -11 8 -5 -6z"/>
<path d="M5414 600 c0 -13 4 -16 10 -10 7 7 7 13 0 20 -6 6 -10 3 -10 -10z"/>
<path d="M4470 602 c0 -5 7 -9 15 -9 8 0 12 4 9 9 -3 4 -9 8 -15 8 -5 0 -9 -4
-9 -8z"/>
<path d="M4680 600 c-9 -6 -10 -10 -3 -10 6 0 15 5 18 10 8 12 4 12 -15 0z"/>
<path d="M4756 593 c-6 -14 -5 -15 5 -6 7 7 10 15 7 18 -3 3 -9 -2 -12 -12z"/>
<path d="M5130 601 c0 -6 4 -13 10 -16 6 -3 7 1 4 9 -7 18 -14 21 -14 7z"/>
<path d="M5310 600 c0 -5 5 -10 11 -10 5 0 7 5 4 10 -3 6 -8 10 -11 10 -2 0
-4 -4 -4 -10z"/>
<path d="M5546 602 c-3 -5 1 -9 9 -9 8 0 12 4 9 9 -3 4 -7 8 -9 8 -2 0 -6 -4
-9 -8z"/>
<path d="M5865 600 c-3 -6 1 -7 9 -4 18 7 21 14 7 14 -6 0 -13 -4 -16 -10z"/>
<path d="M4575 591 c-3 -5 -2 -12 3 -15 5 -3 9 1 9 9 0 17 -3 19 -12 6z"/>
<path d="M5610 579 c0 -5 5 -7 10 -4 6 3 10 8 10 11 0 2 -4 4 -10 4 -5 0 -10
-5 -10 -11z"/>
<path d="M5670 585 c0 -7 30 -13 34 -7 3 4 -4 9 -15 9 -10 1 -19 0 -19 -2z"/>
<path d="M4476 562 c-3 -5 1 -9 9 -9 8 0 12 4 9 9 -3 4 -7 8 -9 8 -2 0 -6 -4
-9 -8z"/>
<path d="M4706 558 c3 -5 10 -6 15 -3 13 9 11 12 -6 12 -8 0 -12 -4 -9 -9z"/>
<path d="M4755 559 c-3 -4 2 -6 10 -5 21 3 28 13 10 13 -9 0 -18 -4 -20 -8z"/>
<path d="M4950 560 c0 -5 5 -10 11 -10 5 0 7 5 4 10 -3 6 -8 10 -11 10 -2 0
-4 -4 -4 -10z"/>
<path d="M5130 560 c0 -5 5 -10 11 -10 5 0 7 5 4 10 -3 6 -8 10 -11 10 -2 0
-4 -4 -4 -10z"/>
<path d="M5455 560 c-3 -5 -1 -10 4 -10 6 0 11 5 11 10 0 6 -2 10 -4 10 -3 0
-8 -4 -11 -10z"/>
<path d="M5515 560 c-3 -5 -1 -10 4 -10 6 0 11 5 11 10 0 6 -2 10 -4 10 -3 0
-8 -4 -11 -10z"/>
<path d="M5555 560 c3 -5 8 -10 11 -10 2 0 4 5 4 10 0 6 -5 10 -11 10 -5 0 -7
-4 -4 -10z"/>
<path d="M4853 543 c4 -3 1 -13 -6 -22 -11 -14 -10 -14 5 -2 16 12 16 31 1 31
-4 0 -3 -3 0 -7z"/>
<path d="M5095 541 c-3 -5 -2 -12 3 -15 5 -3 9 1 9 9 0 17 -3 19 -12 6z"/>
<path d="M5315 540 c3 -5 8 -10 11 -10 2 0 4 5 4 10 0 6 -5 10 -11 10 -5 0 -7
-4 -4 -10z"/>
<path d="M4770 521 c0 -6 4 -13 10 -16 6 -3 7 1 4 9 -7 18 -14 21 -14 7z"/>
<path d="M5276 513 c-6 -14 -5 -15 5 -6 7 7 10 15 7 18 -3 3 -9 -2 -12 -12z"/>
</g>
</svg>
